<svg xmlns="http://www.w3.org/2000/svg" xmlns:xlink="http://www.w3.org/1999/xlink" xmlns:lucid="lucid" width="2582" height="1081"><g transform="translate(533.9333333333334 237.83333333333323)" lucid:page-tab-id="0_0"><path d="M-1000-500h3500v1500h-3500z" fill="#fff"/><path d="M-532.93-141.83a16 16 0 0 1 16-16h84v1000h-84a16 16 0 0 1-16-16z" stroke="#3a414a" stroke-width="2" fill="#9391ff"/><path d="M-432.93-157.83h2464a16 16 0 0 1 16 16v968a16 16 0 0 1-16 16h-2464z" stroke="#3a414a" stroke-width="2" fill="none"/><use xlink:href="#a" transform="matrix(-1.8369701987210297e-16,-1,1,-1.8369701987210297e-16,-532.9333333333334,842.1666666666667) translate(193.515625 64.55078125)"/><use xlink:href="#b" transform="matrix(-1.8369701987210297e-16,-1,1,-1.8369701987210297e-16,-532.9333333333334,842.1666666666667) translate(359.9609375 64.55078125)"/><use xlink:href="#c" transform="matrix(-1.8369701987210297e-16,-1,1,-1.8369701987210297e-16,-532.9333333333334,842.1666666666667) translate(419.0234375 64.55078125)"/><use xlink:href="#d" transform="matrix(-1.8369701987210297e-16,-1,1,-1.8369701987210297e-16,-532.9333333333334,842.1666666666667) translate(588.984375 64.55078125)"/><path d="M-432.93-149.83a8 8 0 0 1 8-8h2464a8 8 0 0 1 8 8v324a8 8 0 0 1-8 8h-2464a8 8 0 0 1-8-8zM-432.93 190.17a8 8 0 0 1 8-8h2464a8 8 0 0 1 8 8v644a8 8 0 0 1-8 8h-2464a8 8 0 0 1-8-8z" stroke="#000" stroke-width="2" fill-opacity="0"/><path d="M-292.93 48.25c0 16.57-13.44 30-30 30-16.57 0-30-13.43-30-30s13.43-30 30-30c16.56 0 30 13.43 30 30z" stroke="#333" fill="#d2d3d5"/><use xlink:href="#e" transform="matrix(1,0,0,1,-352.9333333333334,80.2536804520239) translate(9.19205729166666 19.21666666666667)"/><path d="M-192.93 7.17a5 5 0 0 1 5-5h146.06a5 5 0 0 1 5 5v82.17a5 5 0 0 1-5 5h-146.06a5 5 0 0 1-5-5z" stroke="#333" stroke-width="2" fill="#cfe4ff"/><path d="M-183.5 45.1h34.13V33.75s-3.32-5.66-10.04-7.47h-13.13c-6.27 1.92-11.1 8.3-11.1 8.3l.12 10.5z" stroke="#000" stroke-width="2" fill="#f4f6f7"/><path d="M-183.5 45.1h34.13V33.75s-3.32-5.66-10.04-7.47h-13.13c-6.27 1.92-11.1 8.3-11.1 8.3l.12 10.5zM-176.08 38.93v5.56M-156.35 39.05v5.8" stroke="#000" stroke-width="2" fill="none"/><path d="M-158.23 18.68c0-4.33-3.45-7.84-7.7-7.84-4.23 0-7.66 3.5-7.66 7.84 0 4.32 3.44 7.85 7.68 7.85s7.7-3.53 7.7-7.86z" stroke="#000" stroke-width="2" fill="#020202"/><path d="M-158.23 18.68c0-4.33-3.45-7.84-7.7-7.84-4.23 0-7.66 3.5-7.66 7.84 0 4.32 3.44 7.85 7.68 7.85s7.7-3.53 7.7-7.86z" stroke="#000" stroke-width="2" fill="none"/><path d="M-172.94 20.37s3.98-3.5 7.6-2.62c3.64.9 6.58-1 6.58-1 .33 2.45.06 5.43-2.07 8.1 0 0 1.54 1.07 1.54 2.16 0 1.1.18 2.7-1.4 4.34-1.6 1.63-7.82 1.8-9.58 0-1.78-1.8-1.78-2.64-1.78-3.85 0-1.2.83-1.82 1.78-2.8-1.54-.83-3.55-3.43-2.66-4.33z" stroke="#000" stroke-width="2" fill="#f0eff0"/><path d="M-172.94 20.37s3.98-3.5 7.6-2.62c3.64.9 6.58-1 6.58-1 .33 2.45.06 5.43-2.07 8.1 0 0 1.54 1.07 1.54 2.16 0 1.1.18 2.7-1.4 4.34-1.6 1.63-7.82 1.8-9.58 0-1.78-1.8-1.78-2.64-1.78-3.85 0-1.2.83-1.82 1.78-2.8-1.54-.83-3.55-3.43-2.66-4.33z" stroke="#000" stroke-width="2" fill="none"/><use xlink:href="#f" transform="matrix(1,0,0,1,-192.9333333333334,2.1666666666667425) translate(56.59276041666666 32.364322916666666)"/><use xlink:href="#g" transform="matrix(1,0,0,1,-192.9333333333334,2.1666666666667425) translate(79.59276041666666 32.364322916666666)"/><use xlink:href="#h" transform="matrix(1,0,0,1,-192.9333333333334,2.1666666666667425) translate(55.054999999999986 52.36901041666667)"/><use xlink:href="#i" transform="matrix(1,0,0,1,-192.9333333333334,2.1666666666667425) translate(20.045494791666663 72.37369791666667)"/><use xlink:href="#j" transform="matrix(1,0,0,1,-192.9333333333334,2.1666666666667425) translate(44.457994791666664 72.37369791666667)"/><use xlink:href="#k" transform="matrix(1,0,0,1,-192.9333333333334,2.1666666666667425) translate(68.65252604166668 72.37369791666667)"/><path d="M2007.07 48.25c0 16.57-13.43 30-30 30s-30-13.43-30-30 13.43-30 30-30 30 13.43 30 30z" stroke="#3a414a" stroke-width="6" fill="#fff"/><use xlink:href="#l" transform="matrix(1,0,0,1,1947.0666666666666,80.2536804520239) translate(17.18994140625 17.4375)"/><path d="M-424.93 553.66a8 8 0 0 1-8-8v-284a8 8 0 0 1 8-8h64a8 8 0 0 1 8 8v284a8 8 0 0 1-8 8z" fill="none"/><use xlink:href="#m" transform="matrix(6.123233995736766e-17,-1,1,6.123233995736766e-17,-427.93333333333345,548.6588541666667) translate(0 50.05078125)"/><path d="M-444.93 106.94a8 8 0 0 1-8-8v-328.77a8 8 0 0 1 8-8h110a8 8 0 0 1 8 8V98.94a8 8 0 0 1-8 8z" fill="none"/><use xlink:href="#n" transform="matrix(6.123233995736766e-17,-1,1,6.123233995736766e-17,-447.93333333333345,101.94269440534083) translate(0 73.05078125)"/><use xlink:href="#o" transform="matrix(6.123233995736766e-17,-1,1,6.123233995736766e-17,-447.93333333333345,101.94269440534083) translate(115.17578125 73.05078125)"/><path d="M-52.93 247.17a5 5 0 0 1 5-5h150a5 5 0 0 1 5 5v90a5 5 0 0 1-5 5h-150a5 5 0 0 1-5-5z" stroke="#333" stroke-width="2" fill="#b8f5ed"/><use xlink:href="#p" transform="matrix(1,0,0,1,-52.933333333333394,242.16666666666674) translate(41.254023437499995 23.6875)"/><use xlink:href="#q" transform="matrix(1,0,0,1,-52.933333333333394,242.16666666666674) translate(104.2891796875 23.6875)"/><use xlink:href="#r" transform="matrix(1,0,0,1,-52.933333333333394,242.16666666666674) translate(31.111445312499995 45.466796875)"/><use xlink:href="#s" transform="matrix(1,0,0,1,-52.933333333333394,242.16666666666674) translate(107.3829296875 45.466796875)"/><use xlink:href="#t" transform="matrix(1,0,0,1,-52.933333333333394,242.16666666666674) translate(34.200800781249995 67.24609375)"/><use xlink:href="#s" transform="matrix(1,0,0,1,-52.933333333333394,242.16666666666674) translate(104.29357421875 67.24609375)"/><use xlink:href="#u" transform="matrix(1,0,0,1,-52.933333333333394,242.16666666666674) translate(31.067499999999995 89.025390625)"/><path d="M108.57 292.17h41.1" stroke="#333" fill="none"/><path d="M108.58 292.64h-.5v-.95h.5z" stroke="#333" stroke-width=".05" fill="#333"/><path d="M164.45 292.17l-14.27 4.63v-9.27z" stroke="#333" fill="#333"/><path d="M167.07 237.17a5 5 0 0 1 5-5h210a5 5 0 0 1 5 5v110a5 5 0 0 1-5 5h-210a5 5 0 0 1-5-5z" stroke="#333" stroke-width="2" fill="#b8f5ed"/><use xlink:href="#v" transform="matrix(1,0,0,1,167.0666666666666,232.16666666666674) translate(20.075312500000003 44.625)"/><use xlink:href="#w" transform="matrix(1,0,0,1,167.0666666666666,232.16666666666674) translate(103.95812500000001 44.625)"/><use xlink:href="#x" transform="matrix(1,0,0,1,167.0666666666666,232.16666666666674) translate(123.48742187500001 44.625)"/><use xlink:href="#y" transform="matrix(1,0,0,1,167.0666666666666,232.16666666666674) translate(159.276484375 44.625)"/><use xlink:href="#q" transform="matrix(1,0,0,1,167.0666666666666,232.16666666666674) translate(185.467890625 44.625)"/><use xlink:href="#z" transform="matrix(1,0,0,1,167.0666666666666,232.16666666666674) translate(36.77892578125 66.404296875)"/><use xlink:href="#A" transform="matrix(1,0,0,1,167.0666666666666,232.16666666666674) translate(74.00060546875 66.404296875)"/><use xlink:href="#B" transform="matrix(1,0,0,1,167.0666666666666,232.16666666666674) translate(99.05822265625 66.404296875)"/><use xlink:href="#q" transform="matrix(1,0,0,1,167.0666666666666,232.16666666666674) translate(168.76427734375 66.404296875)"/><use xlink:href="#u" transform="matrix(1,0,0,1,167.0666666666666,232.16666666666674) translate(61.067499999999995 88.18359375)"/><path d="M388.57 292.17h54.53" stroke="#333" fill="none"/><path d="M388.58 292.64h-.5v-.95h.5z" stroke="#333" stroke-width=".05" fill="#333"/><path d="M457.86 292.17l-14.26 4.63v-9.27z" stroke="#333" fill="#333"/><path d="M460.48 237.17a5 5 0 0 1 5-5h210a5 5 0 0 1 5 5v110a5 5 0 0 1-5 5h-210a5 5 0 0 1-5-5z" stroke="#333" stroke-width="2" fill="#b8f5ed"/><use xlink:href="#C" transform="matrix(1,0,0,1,460.48042818256863,232.16666666666674) translate(17.741816406250003 55.875)"/><use xlink:href="#D" transform="matrix(1,0,0,1,460.48042818256863,232.16666666666674) translate(78.35119140625001 55.875)"/><use xlink:href="#E" transform="matrix(1,0,0,1,460.48042818256863,232.16666666666674) translate(98.26720703125001 55.875)"/><use xlink:href="#F" transform="matrix(1,0,0,1,460.48042818256863,232.16666666666674) translate(161.22326171875 55.875)"/><use xlink:href="#q" transform="matrix(1,0,0,1,460.48042818256863,232.16666666666674) translate(187.80138671875 55.875)"/><use xlink:href="#G" transform="matrix(1,0,0,1,460.48042818256863,232.16666666666674) translate(94.64171875000001 77.654296875)"/><path d="M810.07 292.17l25-25 25 25-25 25z" stroke="#000" stroke-width="2" fill="#fff"/><path d="M825.07 282.17l20 20m-20 0l20-20" stroke="#000" stroke-width="2" fill="none"/><path d="M681.98 292.17h110.3" stroke="#333" fill="none"/><path d="M682 292.64h-.52v-.95h.5z" stroke="#333" stroke-width=".05" fill="#333"/><path d="M807.04 292.17l-14.26 4.63v-9.27z" stroke="#333" fill="#333"/><path d="M697.33 300.64a8 8 0 0 1 8-8H813.5a8 8 0 0 1 8 8v29.5a8 8 0 0 1-8 8H705.32a8 8 0 0 1-8-8z" fill="none"/><use xlink:href="#H" transform="matrix(1,0,0,1,702.3317563075686,297.63713541666675) translate(0 13.170572916666664)"/><use xlink:href="#I" transform="matrix(1,0,0,1,702.3317563075686,297.63713541666675) translate(37.532552083333336 13.170572916666664)"/><use xlink:href="#J" transform="matrix(1,0,0,1,702.3317563075686,297.63713541666675) translate(106.15234375 13.170572916666664)"/><use xlink:href="#K" transform="matrix(1,0,0,1,702.3317563075686,297.63713541666675) translate(0 32.529947916666664)"/><path d="M725.07 392.9a5 5 0 0 1 5-5h210a5 5 0 0 1 5 5v110a5 5 0 0 1-5 5h-210a5 5 0 0 1-5-5z" stroke="#333" stroke-width="2" fill="#b8f5ed"/><use xlink:href="#C" transform="matrix(1,0,0,1,725.0741781825686,387.91276041666674) translate(28.025019531250003 44.625)"/><use xlink:href="#L" transform="matrix(1,0,0,1,725.0741781825686,387.91276041666674) translate(88.63439453125001 44.625)"/><use xlink:href="#w" transform="matrix(1,0,0,1,725.0741781825686,387.91276041666674) translate(107.55724609375001 44.625)"/><use xlink:href="#M" transform="matrix(1,0,0,1,725.0741781825686,387.91276041666674) translate(127.08654296875001 44.625)"/><use xlink:href="#s" transform="matrix(1,0,0,1,725.0741781825686,387.91276041666674) translate(170.46935546875 44.625)"/><use xlink:href="#N" transform="matrix(1,0,0,1,725.0741781825686,387.91276041666674) translate(13.646113281250004 66.404296875)"/><use xlink:href="#O" transform="matrix(1,0,0,1,725.0741781825686,387.91276041666674) translate(70.09826171875 66.404296875)"/><use xlink:href="#P" transform="matrix(1,0,0,1,725.0741781825686,387.91276041666674) translate(95.15587890625 66.404296875)"/><use xlink:href="#Q" transform="matrix(1,0,0,1,725.0741781825686,387.91276041666674) translate(176.72716796875 66.404296875)"/><use xlink:href="#q" transform="matrix(1,0,0,1,725.0741781825686,387.91276041666674) translate(191.89708984375 66.404296875)"/><use xlink:href="#M" transform="matrix(1,0,0,1,725.0741781825686,387.91276041666674) translate(49.8966015625 88.18359375)"/><use xlink:href="#F" transform="matrix(1,0,0,1,725.0741781825686,387.91276041666674) translate(93.2794140625 88.18359375)"/><use xlink:href="#w" transform="matrix(1,0,0,1,725.0741781825686,387.91276041666674) translate(119.8575390625 88.18359375)"/><use xlink:href="#G" transform="matrix(1,0,0,1,725.0741781825686,387.91276041666674) translate(139.3868359375 88.18359375)"/><path d="M835.07 319.08v51.45" stroke="#333" fill="none"/><path d="M835.07 318.58l.48-.47v1h-.95v-1z" stroke="#333" stroke-width=".05" fill="#333"/><path d="M835.07 385.3l-4.63-14.27h9.27z" stroke="#333" fill="#333"/><path d="M1070.07 546.17l25-25 25 25-25 25z" stroke="#000" stroke-width="2" fill="#fff"/><path d="M1085.07 536.17l20 20m-20 0l20-20" stroke="#000" stroke-width="2" fill="none"/><path d="M835.07 509.4v24.77a12 12 0 0 0 12 12h205.2" stroke="#333" fill="none"/><path d="M835.55 509.43h-.95v-.52h.95z" stroke="#333" stroke-width=".05" fill="#333"/><path d="M1067.04 546.17l-14.26 4.63v-9.27z" stroke="#333" fill="#333"/><path d="M945.07 561.66a8 8 0 0 1 8-8h74.2a8 8 0 0 1 8 8v8.53a8 8 0 0 1-8 8h-74.2a8 8 0 0 1-8-8z" fill="none"/><use xlink:href="#R" transform="matrix(1,0,0,1,950.0741781825686,558.6588541666667) translate(0 11.865234375)"/><use xlink:href="#S" transform="matrix(1,0,0,1,950.0741781825686,558.6588541666667) translate(23.056640625 11.865234375)"/><path d="M1215.74 558.66a5 5 0 0 1 5-5h210a5 5 0 0 1 5 5v110a5 5 0 0 1-5 5h-210a5 5 0 0 1-5-5z" stroke="#333" stroke-width="2" fill="#b8f5ed"/><use xlink:href="#T" transform="matrix(1,0,0,1,1215.7407291666666,553.6588541666667) translate(20.317011718750003 44.625)"/><use xlink:href="#D" transform="matrix(1,0,0,1,1215.7407291666666,553.6588541666667) translate(88.38830078125001 44.625)"/><use xlink:href="#U" transform="matrix(1,0,0,1,1215.7407291666666,553.6588541666667) translate(108.30431640625001 44.625)"/><use xlink:href="#s" transform="matrix(1,0,0,1,1215.7407291666666,553.6588541666667) translate(178.17736328125 44.625)"/><use xlink:href="#V" transform="matrix(1,0,0,1,1215.7407291666666,553.6588541666667) translate(58.84826171875 66.404296875)"/><use xlink:href="#z" transform="matrix(1,0,0,1,1215.7407291666666,553.6588541666667) translate(109.08654296875 66.404296875)"/><use xlink:href="#W" transform="matrix(1,0,0,1,1215.7407291666666,553.6588541666667) translate(146.30822265625 66.404296875)"/><use xlink:href="#X" transform="matrix(1,0,0,1,1215.7407291666666,553.6588541666667) translate(55.719355468749995 88.18359375)"/><path d="M1095.07 573.08v28.58a12 12 0 0 0 12 12h91.3" stroke="#333" fill="none"/><path d="M1095.07 572.58l.48-.47v1h-.95v-1z" stroke="#333" stroke-width=".05" fill="#333"/><path d="M1213.12 613.66l-14.26 4.63V609z" stroke="#333" fill="#333"/><path d="M1572.07 613.66l25-25 25 25-25 25z" stroke="#000" stroke-width="2" fill="#fff"/><path d="M1587.07 603.66l20 20m-20 0l20-20" stroke="#000" stroke-width="2" fill="none"/><path d="M1437.24 613.66h117.03" stroke="#333" fill="none"/><path d="M1437.25 614.13h-.5v-.95h.5z" stroke="#333" stroke-width=".05" fill="#333"/><path d="M1569.04 613.66l-14.27 4.63V609z" stroke="#333" fill="#333"/><path d="M1476.46 632.12a8 8 0 0 1 8-8h80.27a8 8 0 0 1 8 8v25.95a8 8 0 0 1-8 8h-80.27a8 8 0 0 1-8-8z" fill="none"/><use xlink:href="#Y" transform="matrix(1,0,0,1,1481.4639771121176,629.1196354166666) translate(0 11.653515625)"/><use xlink:href="#Z" transform="matrix(1,0,0,1,1481.4639771121176,629.1196354166666) translate(23.54296875 11.653515625)"/><use xlink:href="#aa" transform="matrix(1,0,0,1,1481.4639771121176,629.1196354166666) translate(54.83203125 11.653515625)"/><use xlink:href="#ab" transform="matrix(1,0,0,1,1481.4639771121176,629.1196354166666) translate(0 29.076953125)"/><use xlink:href="#ac" transform="matrix(1,0,0,1,1481.4639771121176,629.1196354166666) translate(19.353515625 29.076953125)"/><path d="M1707.07 629.12a5 5 0 0 1 5-5h210a5 5 0 0 1 5 5v110a5 5 0 0 1-5 5h-210a5 5 0 0 1-5-5z" stroke="#333" stroke-width="2" fill="#b8f5ed"/><use xlink:href="#ad" transform="matrix(1,0,0,1,1707.0666666666666,624.1196354166666) translate(31.509882812500003 55.875)"/><use xlink:href="#D" transform="matrix(1,0,0,1,1707.0666666666666,624.1196354166666) translate(76.975703125 55.875)"/><use xlink:href="#t" transform="matrix(1,0,0,1,1707.0666666666666,624.1196354166666) translate(96.89171875 55.875)"/><use xlink:href="#s" transform="matrix(1,0,0,1,1707.0666666666666,624.1196354166666) translate(166.9844921875 55.875)"/><use xlink:href="#u" transform="matrix(1,0,0,1,1707.0666666666666,624.1196354166666) translate(61.067499999999995 77.654296875)"/><path d="M1597.07 640.57v31.55a12 12 0 0 0 12 12h80.6" stroke="#333" fill="none"/><path d="M1597.55 640.6h-.95v-1l.47.47.48-.47z" stroke="#333" stroke-width=".05" fill="#333"/><path d="M1704.45 684.12l-14.27 4.63v-9.27z" stroke="#333" fill="#333"/><path d="M1817.07 622.62V435.46" stroke="#333" fill="none"/><path d="M1817.54 623.12h-.95v-.5h.94z" stroke="#333" stroke-width=".05" fill="#333"/><path d="M1817.07 420.7l4.63 14.26h-9.27z" stroke="#333" fill="#333"/><path d="M1707.07 303.07a5 5 0 0 1 5-5h210a5 5 0 0 1 5 5v110a5 5 0 0 1-5 5h-210a5 5 0 0 1-5-5z" stroke="#333" stroke-width="2" fill="#b8f5ed"/><use xlink:href="#ae" transform="matrix(1,0,0,1,1707.0666666666666,298.07260416666645) translate(18.014277343750003 44.625)"/><use xlink:href="#af" transform="matrix(1,0,0,1,1707.0666666666666,298.07260416666645) translate(89.26720703125001 44.625)"/><use xlink:href="#ag" transform="matrix(1,0,0,1,1707.0666666666666,298.07260416666645) translate(108.79650390625001 44.625)"/><use xlink:href="#ah" transform="matrix(1,0,0,1,1707.0666666666666,298.07260416666645) translate(187.14220703125 44.625)"/><use xlink:href="#t" transform="matrix(1,0,0,1,1707.0666666666666,298.07260416666645) translate(54.436152343749995 66.404296875)"/><use xlink:href="#F" transform="matrix(1,0,0,1,1707.0666666666666,298.07260416666645) translate(124.52892578125 66.404296875)"/><use xlink:href="#q" transform="matrix(1,0,0,1,1707.0666666666666,298.07260416666645) translate(151.10705078125 66.404296875)"/><use xlink:href="#u" transform="matrix(1,0,0,1,1707.0666666666666,298.07260416666645) translate(61.067499999999995 88.18359375)"/><path d="M835.07 265.25a8.1 8.1 0 0 1 8.1-8.08h124.52" stroke="#333" fill="none"/><path d="M835.55 266.23l-.48-.48-.47.48v-1h.95z" stroke="#333" stroke-width=".05" fill="#333"/><path d="M982.46 257.17l-14.27 4.63v-9.27z" stroke="#333" fill="#333"/><path d="M1095.07 519.25v-184.7" stroke="#333" fill="none"/><path d="M1095.55 520.23l-.48-.48-.47.48v-1h.95z" stroke="#333" stroke-width=".05" fill="#333"/><path d="M1095.07 319.8l4.64 14.25h-9.26z" stroke="#333" fill="#333"/><path d="M1597.07 586.75V269.17a12 12 0 0 0-12-12h-362.6" stroke="#333" fill="none"/><path d="M1597.55 587.72l-.48-.48-.47.48v-1h.95z" stroke="#333" stroke-width=".05" fill="#333"/><path d="M1207.7 257.17l14.26-4.64v9.27z" stroke="#333" fill="#333"/><path d="M985.07 202.17a5 5 0 0 1 5-5h210a5 5 0 0 1 5 5v110a5 5 0 0 1-5 5h-210a5 5 0 0 1-5-5z" stroke="#333" stroke-width="2" fill="#b8f5ed"/><g><use xlink:href="#ai" transform="matrix(1,0,0,1,985.0741781825689,197.16666666666674) translate(12.723261718750004 44.625)"/><use xlink:href="#z" transform="matrix(1,0,0,1,985.0741781825689,197.16666666666674) translate(75.03771484375001 44.625)"/><use xlink:href="#aj" transform="matrix(1,0,0,1,985.0741781825689,197.16666666666674) translate(112.25939453125001 44.625)"/><use xlink:href="#A" transform="matrix(1,0,0,1,985.0741781825689,197.16666666666674) translate(138.74962890625 44.625)"/><use xlink:href="#ak" transform="matrix(1,0,0,1,985.0741781825689,197.16666666666674) translate(163.80724609375 44.625)"/><use xlink:href="#al" transform="matrix(1,0,0,1,985.0741781825689,197.16666666666674) translate(13.061640625000004 66.404296875)"/><use xlink:href="#w" transform="matrix(1,0,0,1,985.0741781825689,197.16666666666674) translate(89.54406250000001 66.404296875)"/><use xlink:href="#am" transform="matrix(1,0,0,1,985.0741781825689,197.16666666666674) translate(109.07335937500001 66.404296875)"/><use xlink:href="#an" transform="matrix(1,0,0,1,985.0741781825689,197.16666666666674) translate(30.604609375000003 88.18359375)"/><use xlink:href="#w" transform="matrix(1,0,0,1,985.0741781825689,197.16666666666674) translate(119.05773437500001 88.18359375)"/><use xlink:href="#ao" transform="matrix(1,0,0,1,985.0741781825689,197.16666666666674) translate(138.58703125 88.18359375)"/></g><path d="M1739.03 7.17a5 5 0 0 1 5-5h146.07a5 5 0 0 1 5 5v82.17a5 5 0 0 1-5 5h-146.07a5 5 0 0 1-5-5z" stroke="#333" stroke-width="2" fill="#cfe4ff"/><path d="M1748.46 45.1h34.13V33.75s-3.32-5.66-10.04-7.47h-13.12c-6.27 1.92-11.1 8.3-11.1 8.3l.12 10.5z" stroke="#000" stroke-width="2" fill="#f4f6f7"/><path d="M1748.46 45.1h34.13V33.75s-3.32-5.66-10.04-7.47h-13.12c-6.27 1.92-11.1 8.3-11.1 8.3l.12 10.5zM1755.9 38.93v5.56M1775.6 39.05v5.8" stroke="#000" stroke-width="2" fill="none"/><path d="M1773.74 18.68c0-4.33-3.45-7.84-7.7-7.84-4.23 0-7.67 3.5-7.67 7.84 0 4.32 3.44 7.85 7.68 7.85s7.7-3.53 7.7-7.86z" stroke="#000" stroke-width="2" fill="#020202"/><path d="M1773.74 18.68c0-4.33-3.45-7.84-7.7-7.84-4.23 0-7.67 3.5-7.67 7.84 0 4.32 3.44 7.85 7.68 7.85s7.7-3.53 7.7-7.86z" stroke="#000" stroke-width="2" fill="none"/><path d="M1759.03 20.37s3.98-3.5 7.6-2.62c3.64.9 6.58-1 6.58-1 .34 2.45.06 5.43-2.07 8.1 0 0 1.54 1.07 1.54 2.16 0 1.1.18 2.7-1.42 4.34-1.6 1.63-7.8 1.8-9.56 0-1.8-1.8-1.8-2.64-1.8-3.85 0-1.2.84-1.82 1.8-2.8-1.55-.83-3.56-3.43-2.67-4.33z" stroke="#000" stroke-width="2" fill="#f0eff0"/><path d="M1759.03 20.37s3.98-3.5 7.6-2.62c3.64.9 6.58-1 6.58-1 .34 2.45.06 5.43-2.07 8.1 0 0 1.54 1.07 1.54 2.16 0 1.1.18 2.7-1.42 4.34-1.6 1.63-7.8 1.8-9.56 0-1.8-1.8-1.8-2.64-1.8-3.85 0-1.2.84-1.82 1.8-2.8-1.55-.83-3.56-3.43-2.67-4.33z" stroke="#000" stroke-width="2" fill="none"/><g><use xlink:href="#ap" transform="matrix(1,0,0,1,1739.0337706148202,2.1666666666667425) translate(65.33989583333333 42.536197916666666)"/><use xlink:href="#aq" transform="matrix(1,0,0,1,1739.0337706148202,2.1666666666667425) translate(125.37817708333333 42.536197916666666)"/><use xlink:href="#ar" transform="matrix(1,0,0,1,1739.0337706148202,2.1666666666667425) translate(77.46541666666667 62.54088541666667)"/></g><path d="M1896.6 48.25h34.08" stroke="#333" fill="none"/><path d="M1896.6 48.73h-.5v-.95h.5z" stroke="#333" stroke-width=".05" fill="#333"/><path d="M1945.45 48.25l-14.27 4.64V43.6z" stroke="#333" fill="#333"/><path d="M1095.07 195.67V91.05" stroke="#333" fill="none"/><path d="M1095.55 196.17h-.95v-.52h.95z" stroke="#333" stroke-width=".05" fill="#333"/><path d="M1095.07 76.3l4.64 14.25h-9.26z" stroke="#333" fill="#333"/><path d="M1070.07 48.25l25-25 25 25-25 25z" stroke="#000" stroke-width="2" fill="#fff"/><path d="M1085.07 38.25l20 20m-20 0l20-20" stroke="#000" stroke-width="2" fill="none"/><path d="M-291.93 48.25h81.6" stroke="#333" fill="none"/><path d="M-291.92 48.73h-.55l.04-.46-.02-.5h.53z" stroke="#333" stroke-width=".05" fill="#333"/><path d="M-195.55 48.25l-14.27 4.64V43.6z" stroke="#333" fill="#333"/><path d="M-114.9 95.84v184.33a12 12 0 0 0 12 12h32.58" stroke="#333" fill="none"/><path d="M-114.42 95.85h-.95v-.5h.95z" stroke="#333" stroke-width=".05" fill="#333"/><path d="M-55.55 292.17l-14.27 4.63v-9.27z" stroke="#333" fill="#333"/><path d="M1068.16 48.25H-19.48" stroke="#333" fill="none"/><path d="M1068.66 48.25l.47.48h-.98v-.95h.98z" stroke="#333" stroke-width=".05" fill="#333"/><path d="M-34.25 48.25l14.27-4.63v9.27z" stroke="#333" fill="#333"/><path d="M840 325.64a8 8 0 0 1 8-8h10.25a8 8 0 0 1 8 8v8.53a8 8 0 0 1-8 8H848a8 8 0 0 1-8-8z" fill="none"/><g><use xlink:href="#as" transform="matrix(1,0,0,1,845,322.63713541666675) translate(0.3818359375 11.865234375)"/></g><path d="M845.63 261.1a8 8 0 0 1 8-8h4.62a8 8 0 0 1 8 8v8.54a8 8 0 0 1-8 8h-4.62a8 8 0 0 1-8-8z" fill="none"/><g><use xlink:href="#at" transform="matrix(1,0,0,1,850.630859375,258.10760416666676) translate(0.197265625 11.865234375)"/></g><path d="M1093.83 504.64a8 8 0 0 1 8-8h10.24a8 8 0 0 1 8 8v8.53a8 8 0 0 1-8 8h-10.24a8 8 0 0 1-8-8z" fill="none"/><g><use xlink:href="#as" transform="matrix(1,0,0,1,1098.8278500575686,501.63713541666664) translate(0.3818359375 11.865234375)"/></g><path d="M1102.3 590.17a8 8 0 0 1 8-8h4.6a8 8 0 0 1 8 8v8.53a8 8 0 0 1-8 8h-4.6a8 8 0 0 1-8-8z" fill="none"/><g><use xlink:href="#au" transform="matrix(1,0,0,1,1107.2966000575689,587.1666666666667) translate(0.197265625 11.865234375)"/></g><path d="M1600.53 649.54a8 8 0 0 1 8-8h10.25a8 8 0 0 1 8 8v8.53a8 8 0 0 1-8 8h-10.25a8 8 0 0 1-8-8z" fill="none"/><g><use xlink:href="#as" transform="matrix(1,0,0,1,1605.528759389392,646.5430729166666) translate(0.3818359375 11.865234375)"/></g><path d="M1606.16 572.13a8 8 0 0 1 8-8h4.62a8 8 0 0 1 8 8v8.53a8 8 0 0 1-8 8h-4.62a8 8 0 0 1-8-8z" fill="none"/><g><use xlink:href="#at" transform="matrix(1,0,0,1,1611.159618764392,569.1293229166668) translate(0.197265625 11.865234375)"/></g><path d="M1117.07 63.52a8 8 0 0 1 8-8H1225a8 8 0 0 1 8 8v8.53a8 8 0 0 1-8 8h-99.93a8 8 0 0 1-8-8z" fill="none"/><g><use xlink:href="#av" transform="matrix(1,0,0,1,1122.0666666666666,60.52250857702404) translate(0 11.865234375)"/><use xlink:href="#aw" transform="matrix(1,0,0,1,1122.0666666666666,60.52250857702404) translate(45.3515625 11.865234375)"/></g><path d="M1117.07 31.25a8 8 0 0 1 8-8h10.24a8 8 0 0 1 8 8v8.53a8 8 0 0 1-8 8h-10.23a8 8 0 0 1-8-8z" fill="none"/><g><use xlink:href="#as" transform="matrix(1,0,0,1,1122.0666666666666,28.2536804520239) translate(0.3818359375 11.865234375)"/></g><path d="M1046.76 31.25a8 8 0 0 1 8-8h4.6a8 8 0 0 1 8 8v8.53a8 8 0 0 1-8 8h-4.6a8 8 0 0 1-8-8z" fill="none"/><g><use xlink:href="#au" transform="matrix(1,0,0,1,1051.7589322916665,28.2536804520239) translate(0.197265625 11.865234375)"/></g><path d="M1122 48.25h599.66" stroke="#333" fill="none"/><path d="M1122 48.73h-1l.5-.48-.5-.47h1z" stroke="#333" stroke-width=".05" fill="#333"/><path d="M1736.4 48.25l-14.25 4.64V43.6z" stroke="#333" fill="#333"/><path d="M1817.07 296.57V111.73" stroke="#333" fill="none"/><path d="M1817.54 297.07h-.95v-.5h.94z" stroke="#333" stroke-width=".05" fill="#333"/><path d="M1817.07 96.96l4.63 14.27h-9.27z" stroke="#333" fill="#333"/><defs><path d="M180 0v-1490h510c348 0 508 209 508 474 0 266-160 477-507 477H370V0H180zm190-706h312c236 0 327-133 327-310 0-176-91-307-329-307H370v617" id="ax"/><path d="M158 0v-1118h174v172h12c41-113 157-188 290-188 26 0 70 2 91 3v181c-11-2-60-10-108-10-161 0-279 109-279 260V0H158" id="ay"/><path d="M613 24c-304 0-509-231-509-576 0-350 205-580 509-580 305 0 511 230 511 580 0 345-206 576-511 576zm0-161c226 0 329-195 329-415 0-222-103-419-329-419-223 0-326 196-326 419 0 220 103 415 326 415" id="az"/><path d="M613 24c-304 0-509-231-509-576 0-350 205-580 509-580 216 0 392 114 453 309l-173 49c-33-115-133-197-280-197-223 0-326 196-326 419 0 220 103 415 326 415 150 0 252-85 285-206l172 49C1010-95 832 24 613 24" id="aA"/><path d="M628 24c-324 0-524-230-524-574 0-343 198-582 503-582 237 0 487 146 487 559v75H286c9 234 145 362 343 362 132 0 231-58 273-172l174 48C1024-91 857 24 628 24zM287-650h624c-17-190-120-322-304-322-192 0-309 151-320 322" id="aB"/><path d="M538 24C308 24 148-78 108-271l171-41c32 123 123 178 257 178 156 0 256-77 256-169 0-77-54-128-164-154l-186-44c-203-48-300-148-300-305 0-192 176-326 414-326 230 0 351 112 402 269l-163 42c-31-80-94-158-238-158-133 0-233 69-233 162 0 83 57 129 188 160l169 40c203 48 298 149 298 302 0 196-179 339-441 339" id="aC"/><g id="a"><use transform="matrix(0.01953125,0,0,0.01953125,0,0)" xlink:href="#ax"/><use transform="matrix(0.01953125,0,0,0.01953125,25.546875,0)" xlink:href="#ay"/><use transform="matrix(0.01953125,0,0,0.01953125,39.94140625,0)" xlink:href="#az"/><use transform="matrix(0.01953125,0,0,0.01953125,63.92578125,0)" xlink:href="#aA"/><use transform="matrix(0.01953125,0,0,0.01953125,86.77734375,0)" xlink:href="#aB"/><use transform="matrix(0.01953125,0,0,0.01953125,110.09765625,0)" xlink:href="#aC"/><use transform="matrix(0.01953125,0,0,0.01953125,131.2109375,0)" xlink:href="#az"/></g><path d="M577 24c-279 0-473-224-473-580 0-354 195-576 474-576 218 0 287 134 324 193h14v-551h180V0H922v-173h-20C865-111 790 24 577 24zm27-161c203 0 314-172 314-421 0-247-108-413-314-413-212 0-317 181-317 413 0 235 108 421 317 421" id="aD"/><g id="b"><use transform="matrix(0.01953125,0,0,0.01953125,0,0)" xlink:href="#aD"/><use transform="matrix(0.01953125,0,0,0.01953125,24.4921875,0)" xlink:href="#aB"/></g><path d="M611 442c-248 0-391-105-460-228l146-94c47 65 117 165 314 165 178 0 307-82 307-266v-224h-17C863-141 792-18 576-18c-268 0-472-195-472-546 0-346 197-568 476-568 216 0 288 133 326 193h17v-179h175V29c0 289-215 413-487 413zm-5-620c203 0 314-146 314-390 0-237-108-403-314-403-213 0-319 180-319 403 0 230 109 390 319 390" id="aE"/><path d="M158 0v-1118h180V0H158zm91-1301c-68 0-125-53-125-119s57-119 125-119c69 0 126 53 126 119s-57 119-126 119" id="aF"/><path d="M598-1118v154H368v674c0 100 37 144 132 144 23 0 62-6 92-12L629-6c-37 13-88 20-134 20-193 0-307-107-307-290v-688H20v-154h168v-266h180v266h230" id="aG"/><path d="M471 26C259 26 90-98 90-318c0-256 228-303 435-329 202-27 287-16 287-108 0-139-79-219-234-219-161 0-248 86-283 164l-173-57c86-203 278-265 451-265 150 0 419 46 419 395V0H815v-152h-12C765-73 660 26 471 26zm31-159c199 0 310-134 310-271v-155c-30 35-226 55-295 64-131 17-246 59-246 186 0 116 97 176 231 176" id="aH"/><g id="c"><use transform="matrix(0.01953125,0,0,0.01953125,0,0)" xlink:href="#ay"/><use transform="matrix(0.01953125,0,0,0.01953125,14.39453125,0)" xlink:href="#aB"/><use transform="matrix(0.01953125,0,0,0.01953125,37.71484375,0)" xlink:href="#aE"/><use transform="matrix(0.01953125,0,0,0.01953125,62.24609375,0)" xlink:href="#aF"/><use transform="matrix(0.01953125,0,0,0.01953125,71.93359375,0)" xlink:href="#aC"/><use transform="matrix(0.01953125,0,0,0.01953125,93.046875,0)" xlink:href="#aG"/><use transform="matrix(0.01953125,0,0,0.01953125,106.1328125,0)" xlink:href="#ay"/><use transform="matrix(0.01953125,0,0,0.01953125,121.19140625,0)" xlink:href="#aH"/><use transform="matrix(0.01953125,0,0,0.01953125,143.65234375,0)" xlink:href="#ay"/></g><path d="M481 0L54-1118h197c107 314 236 620 325 951 87-331 217-637 324-951h197L670 0H481" id="aI"/><path d="M537 14c-226 0-379-139-379-422v-710h180v695c0 172 97 275 253 275 160 0 281-109 281-300v-670h181V0H879v-209C806-46 684 14 537 14" id="aJ"/><path d="M338-670V0H158v-1118h173l1 207c72-158 192-221 342-221 226 0 378 139 378 422V0H872v-695c0-172-96-275-252-275-161 0-282 109-282 300" id="aK"/><path d="M613 24c-304 0-509-231-509-576 0-350 205-580 509-580 305 0 511 230 511 580 0 345-206 576-511 576zm0-161c226 0 329-195 329-415 0-222-103-419-329-419-223 0-326 196-326 419 0 220 103 415 326 415zm-79-1127l140-294h201l-194 294H534" id="aL"/><g id="d"><use transform="matrix(0.01953125,0,0,0.01953125,0,0)" xlink:href="#aI"/><use transform="matrix(0.01953125,0,0,0.01953125,22.28515625,0)" xlink:href="#aH"/><use transform="matrix(0.01953125,0,0,0.01953125,44.74609375,0)" xlink:href="#aA"/><use transform="matrix(0.01953125,0,0,0.01953125,67.59765625,0)" xlink:href="#aJ"/><use transform="matrix(0.01953125,0,0,0.01953125,91.25,0)" xlink:href="#aK"/><use transform="matrix(0.01953125,0,0,0.01953125,114.8828125,0)" xlink:href="#aH"/><use transform="matrix(0.01953125,0,0,0.01953125,137.34375,0)" xlink:href="#aA"/><use transform="matrix(0.01953125,0,0,0.01953125,160.1953125,0)" xlink:href="#aF"/><use transform="matrix(0.01953125,0,0,0.01953125,169.8828125,0)" xlink:href="#aL"/><use transform="matrix(0.01953125,0,0,0.01953125,193.8671875,0)" xlink:href="#aK"/></g><path fill="#333" d="M524-1490L277 0H87l247-1490h190" id="aM"/><path fill="#333" d="M356-664L245 0H65l186-1118h173l-32 197c96-152 219-211 366-211 232 0 366 145 319 428L960 0H779l117-701c29-174-48-269-198-269-165 0-310 115-342 306" id="aN"/><path fill="#333" d="M66 0l185-1118h180L246 0H66zm307-1301c-71 0-117-55-106-119s74-119 145-119c65 0 117 50 106 118s-78 120-145 120" id="aO"/><path fill="#333" d="M528 24C258 24 94-156 94-433c0-354 228-699 603-699 222 0 381 120 410 314l-176 39c-14-114-95-192-238-192-272 0-419 288-419 536 0 167 76 298 258 298 155 0 277-90 329-211l166 58C935-93 745 24 528 24" id="aP"/><path fill="#333" d="M528 24C258 24 94-156 94-433c0-355 229-699 603-699 270 0 436 178 436 458 0 359-234 698-605 698zm4-161c275 0 420-287 420-533 0-170-77-301-260-301-271 0-418 288-418 536 0 168 77 298 258 298" id="aQ"/><g id="e"><use transform="matrix(0.008072916666666667,0,0,0.008072916666666667,0,0)" xlink:href="#aM"/><use transform="matrix(0.008072916666666667,0,0,0.008072916666666667,4.440104166666667,0)" xlink:href="#aN"/><use transform="matrix(0.008072916666666667,0,0,0.008072916666666667,14.216406250000002,0)" xlink:href="#aO"/><use transform="matrix(0.008072916666666667,0,0,0.008072916666666667,18.228645833333335,0)" xlink:href="#aP"/><use transform="matrix(0.008072916666666667,0,0,0.008072916666666667,27.68203125,0)" xlink:href="#aO"/><use transform="matrix(0.008072916666666667,0,0,0.008072916666666667,31.694270833333334,0)" xlink:href="#aQ"/></g><path d="M180 0v-1490h510c348 0 508 194 508 460 0 198-88 351-276 417L1256 0h-220L726-579c-117 2-238 0-356 1V0H180zm190-747h312c235 0 327-108 327-283 0-177-92-293-329-293H370v576" id="aR"/><g id="g"><use transform="matrix(0.008072916666666667,0,0,0.008072916666666667,0,0)" xlink:href="#aR"/><use transform="matrix(0.008072916666666667,0,0,0.008072916666666667,10.397916666666667,0)" xlink:href="#aB"/><use transform="matrix(0.008072916666666667,0,0,0.008072916666666667,20.03697916666667,0)" xlink:href="#aE"/><use transform="matrix(0.008072916666666667,0,0,0.008072916666666667,30.176562500000003,0)" xlink:href="#aF"/><use transform="matrix(0.008072916666666667,0,0,0.008072916666666667,34.18072916666667,0)" xlink:href="#aC"/><use transform="matrix(0.008072916666666667,0,0,0.008072916666666667,42.90755208333334,0)" xlink:href="#aG"/><use transform="matrix(0.008072916666666667,0,0,0.008072916666666667,48.31640625000001,0)" xlink:href="#ay"/><use transform="matrix(0.008072916666666667,0,0,0.008072916666666667,54.540625000000006,0)" xlink:href="#aH"/></g><g id="h"><use transform="matrix(0.008072916666666667,0,0,0.008072916666666667,0,0)" xlink:href="#aI"/><use transform="matrix(0.008072916666666667,0,0,0.008072916666666667,9.211197916666668,0)" xlink:href="#aH"/><use transform="matrix(0.008072916666666667,0,0,0.008072916666666667,18.495052083333334,0)" xlink:href="#aA"/><use transform="matrix(0.008072916666666667,0,0,0.008072916666666667,27.94036458333333,0)" xlink:href="#aJ"/><use transform="matrix(0.008072916666666667,0,0,0.008072916666666667,37.71666666666667,0)" xlink:href="#aK"/><use transform="matrix(0.008072916666666667,0,0,0.008072916666666667,47.48489583333334,0)" xlink:href="#aH"/><use transform="matrix(0.008072916666666667,0,0,0.008072916666666667,56.76875000000001,0)" xlink:href="#aA"/><use transform="matrix(0.008072916666666667,0,0,0.008072916666666667,66.21406250000001,0)" xlink:href="#aF"/><use transform="matrix(0.008072916666666667,0,0,0.008072916666666667,70.21822916666667,0)" xlink:href="#aL"/><use transform="matrix(0.008072916666666667,0,0,0.008072916666666667,80.13177083333333,0)" xlink:href="#aK"/></g><g id="i"><use transform="matrix(0.008072916666666667,0,0,0.008072916666666667,0,0)" xlink:href="#aD"/><use transform="matrix(0.008072916666666667,0,0,0.008072916666666667,10.123437500000001,0)" xlink:href="#aB"/></g><g id="j"><use transform="matrix(0.008072916666666667,0,0,0.008072916666666667,0,0)" xlink:href="#aJ"/><use transform="matrix(0.008072916666666667,0,0,0.008072916666666667,9.776302083333334,0)" xlink:href="#aK"/></g><path d="M158 418v-1536h174v179h20c37-59 106-193 324-193 279 0 474 222 474 576 0 356-194 580-473 580-213 0-288-135-325-197h-14v591H158zm492-555c209 0 317-186 317-421 0-232-105-413-317-413-206 0-314 166-314 413 0 249 111 421 314 421" id="aS"/><g id="k"><use transform="matrix(0.008072916666666667,0,0,0.008072916666666667,0,0)" xlink:href="#aS"/><use transform="matrix(0.008072916666666667,0,0,0.008072916666666667,10.284895833333335,0)" xlink:href="#aH"/><use transform="matrix(0.008072916666666667,0,0,0.008072916666666667,19.56875,0)" xlink:href="#aA"/><use transform="matrix(0.008072916666666667,0,0,0.008072916666666667,29.0140625,0)" xlink:href="#aF"/><use transform="matrix(0.008072916666666667,0,0,0.008072916666666667,33.01822916666667,0)" xlink:href="#aB"/><use transform="matrix(0.008072916666666667,0,0,0.008072916666666667,42.65729166666667,0)" xlink:href="#aK"/><use transform="matrix(0.008072916666666667,0,0,0.008072916666666667,52.42552083333334,0)" xlink:href="#aG"/><use transform="matrix(0.008072916666666667,0,0,0.008072916666666667,57.672916666666666,0)" xlink:href="#aB"/></g><path d="M180 0v-1490h901v168H370v510h643v168H370V0H180" id="aT"/><g id="l"><use transform="matrix(0.0087890625,0,0,0.0087890625,0,0)" xlink:href="#aT"/><use transform="matrix(0.0087890625,0,0,0.0087890625,10.6259765625,0)" xlink:href="#aF"/><use transform="matrix(0.0087890625,0,0,0.0087890625,14.9853515625,0)" xlink:href="#aK"/></g><path d="M657 26c-323 0-524-166-541-416h195c15 169 171 246 346 246 202 0 356-106 356-265 5-203-294-238-475-293-239-73-380-191-380-389 0-252 224-419 512-419 294 0 499 171 508 396H992c-17-145-151-228-328-228-193 0-321 102-321 242 0 156 175 211 284 241l149 41c160 44 422 134 422 412 0 244-197 432-541 432" id="aU"/><path d="M158 0v-1118h175l1 205c55-151 181-225 313-225 147 0 245 90 285 228 53-141 190-228 352-228 194 0 352 125 352 384V0h-181v-749c0-161-105-225-225-225-151 0-243 103-243 244V0H807v-767c0-124-93-207-219-207-131 0-250 92-250 270V0H158" id="aV"/><g id="m"><use transform="matrix(0.01953125,0,0,0.01953125,0,0)" xlink:href="#aU"/><use transform="matrix(0.01953125,0,0,0.01953125,25.6640625,0)" xlink:href="#aF"/><use transform="matrix(0.01953125,0,0,0.01953125,35.3515625,0)" xlink:href="#aC"/><use transform="matrix(0.01953125,0,0,0.01953125,56.46484375,0)" xlink:href="#aG"/><use transform="matrix(0.01953125,0,0,0.01953125,69.16015625,0)" xlink:href="#aB"/><use transform="matrix(0.01953125,0,0,0.01953125,92.48046875,0)" xlink:href="#aV"/><use transform="matrix(0.01953125,0,0,0.01953125,127.51953125,0)" xlink:href="#aH"/></g><path d="M295 13c-75 0-135-60-135-135s60-135 135-135 135 60 135 135S370 13 295 13" id="aW"/><g id="n"><use transform="matrix(0.01953125,0,0,0.01953125,0,0)" xlink:href="#aT"/><use transform="matrix(0.01953125,0,0,0.01953125,22.265625,0)" xlink:href="#aJ"/><use transform="matrix(0.01953125,0,0,0.01953125,45.91796875,0)" xlink:href="#aK"/><use transform="matrix(0.01953125,0,0,0.01953125,69.55078125,0)" xlink:href="#aA"/><use transform="matrix(0.01953125,0,0,0.01953125,92.40234375,0)" xlink:href="#aW"/></g><path d="M338-1490V0H158v-1490h180" id="aX"/><g id="o"><use transform="matrix(0.01953125,0,0,0.01953125,0,0)" xlink:href="#aU"/><use transform="matrix(0.01953125,0,0,0.01953125,25.6640625,0)" xlink:href="#aH"/><use transform="matrix(0.01953125,0,0,0.01953125,48.125,0)" xlink:href="#aX"/><use transform="matrix(0.01953125,0,0,0.01953125,57.8125,0)" xlink:href="#aJ"/><use transform="matrix(0.01953125,0,0,0.01953125,81.46484375,0)" xlink:href="#aD"/></g><path d="M677 24c-213 0-288-135-325-197h-20V0H158v-1490h180v551h14c37-59 106-193 324-193 279 0 474 222 474 576 0 356-194 580-473 580zm-27-161c209 0 317-186 317-421 0-232-105-413-317-413-206 0-314 166-314 413 0 249 111 421 314 421" id="aY"/><g id="p"><use transform="matrix(0.0087890625,0,0,0.0087890625,0,0)" xlink:href="#aR"/><use transform="matrix(0.0087890625,0,0,0.0087890625,11.3203125,0)" xlink:href="#aB"/><use transform="matrix(0.0087890625,0,0,0.0087890625,21.814453125,0)" xlink:href="#aA"/><use transform="matrix(0.0087890625,0,0,0.0087890625,32.09765625,0)" xlink:href="#aF"/><use transform="matrix(0.0087890625,0,0,0.0087890625,36.45703125,0)" xlink:href="#aY"/><use transform="matrix(0.0087890625,0,0,0.0087890625,47.478515625,0)" xlink:href="#aB"/></g><g id="q"><use transform="matrix(0.0087890625,0,0,0.0087890625,0,0)" xlink:href="#aX"/><use transform="matrix(0.0087890625,0,0,0.0087890625,4.359375,0)" xlink:href="#aH"/></g><g id="r"><use transform="matrix(0.0087890625,0,0,0.0087890625,0,0)" xlink:href="#aC"/><use transform="matrix(0.0087890625,0,0,0.0087890625,9.5009765625,0)" xlink:href="#az"/><use transform="matrix(0.0087890625,0,0,0.0087890625,20.2939453125,0)" xlink:href="#aX"/><use transform="matrix(0.0087890625,0,0,0.0087890625,24.6533203125,0)" xlink:href="#aF"/><use transform="matrix(0.0087890625,0,0,0.0087890625,29.0126953125,0)" xlink:href="#aA"/><use transform="matrix(0.0087890625,0,0,0.0087890625,39.2958984375,0)" xlink:href="#aF"/><use transform="matrix(0.0087890625,0,0,0.0087890625,43.6552734375,0)" xlink:href="#aG"/><use transform="matrix(0.0087890625,0,0,0.0087890625,49.5439453125,0)" xlink:href="#aJ"/><use transform="matrix(0.0087890625,0,0,0.0087890625,60.1875,0)" xlink:href="#aD"/></g><g id="s"><use transform="matrix(0.0087890625,0,0,0.0087890625,0,0)" xlink:href="#aD"/><use transform="matrix(0.0087890625,0,0,0.0087890625,11.021484375,0)" xlink:href="#aB"/></g><g id="t"><use transform="matrix(0.0087890625,0,0,0.0087890625,0,0)" xlink:href="#ay"/><use transform="matrix(0.0087890625,0,0,0.0087890625,6.4775390625,0)" xlink:href="#aB"/><use transform="matrix(0.0087890625,0,0,0.0087890625,16.9716796875,0)" xlink:href="#aE"/><use transform="matrix(0.0087890625,0,0,0.0087890625,28.0107421875,0)" xlink:href="#aF"/><use transform="matrix(0.0087890625,0,0,0.0087890625,32.3701171875,0)" xlink:href="#aC"/><use transform="matrix(0.0087890625,0,0,0.0087890625,41.87109375,0)" xlink:href="#aG"/><use transform="matrix(0.0087890625,0,0,0.0087890625,47.759765625,0)" xlink:href="#ay"/><use transform="matrix(0.0087890625,0,0,0.0087890625,54.2373046875,0)" xlink:href="#az"/></g><g id="u"><use transform="matrix(0.0087890625,0,0,0.0087890625,0,0)" xlink:href="#aI"/><use transform="matrix(0.0087890625,0,0,0.0087890625,10.0283203125,0)" xlink:href="#aH"/><use transform="matrix(0.0087890625,0,0,0.0087890625,20.1357421875,0)" xlink:href="#aA"/><use transform="matrix(0.0087890625,0,0,0.0087890625,30.4189453125,0)" xlink:href="#aJ"/><use transform="matrix(0.0087890625,0,0,0.0087890625,41.0625,0)" xlink:href="#aK"/><use transform="matrix(0.0087890625,0,0,0.0087890625,51.697265625,0)" xlink:href="#aH"/><use transform="matrix(0.0087890625,0,0,0.0087890625,61.8046875,0)" xlink:href="#aA"/><use transform="matrix(0.0087890625,0,0,0.0087890625,72.087890625,0)" xlink:href="#aF"/><use transform="matrix(0.0087890625,0,0,0.0087890625,76.447265625,0)" xlink:href="#aL"/><use transform="matrix(0.0087890625,0,0,0.0087890625,87.240234375,0)" xlink:href="#aK"/></g><path d="M370-1490V0H180v-1490h190" id="aZ"/><path d="M678-1118v154H420V0H240v-964H20v-154h220v-149c0-194 155-293 318-293 85 0 141 18 168 30l-50 154c-19-6-47-17-97-17-111 0-159 58-159 166v109h258" id="ba"/><g id="v"><use transform="matrix(0.0087890625,0,0,0.0087890625,0,0)" xlink:href="#aZ"/><use transform="matrix(0.0087890625,0,0,0.0087890625,4.833984375,0)" xlink:href="#aD"/><use transform="matrix(0.0087890625,0,0,0.0087890625,15.85546875,0)" xlink:href="#aB"/><use transform="matrix(0.0087890625,0,0,0.0087890625,26.349609375,0)" xlink:href="#aK"/><use transform="matrix(0.0087890625,0,0,0.0087890625,36.984375,0)" xlink:href="#aG"/><use transform="matrix(0.0087890625,0,0,0.0087890625,42.873046875,0)" xlink:href="#aF"/><use transform="matrix(0.0087890625,0,0,0.0087890625,47.232421875,0)" xlink:href="#ba"/><use transform="matrix(0.0087890625,0,0,0.0087890625,53.89453125,0)" xlink:href="#aF"/><use transform="matrix(0.0087890625,0,0,0.0087890625,58.25390625,0)" xlink:href="#aA"/><use transform="matrix(0.0087890625,0,0,0.0087890625,68.712890625,0)" xlink:href="#aH"/></g><g id="w"><use transform="matrix(0.0087890625,0,0,0.0087890625,0,0)" xlink:href="#aX"/><use transform="matrix(0.0087890625,0,0,0.0087890625,4.359375,0)" xlink:href="#aH"/></g><g id="x"><use transform="matrix(0.0087890625,0,0,0.0087890625,0,0)" xlink:href="#aA"/><use transform="matrix(0.0087890625,0,0,0.0087890625,10.283203125,0)" xlink:href="#aF"/><use transform="matrix(0.0087890625,0,0,0.0087890625,14.642578125,0)" xlink:href="#aG"/><use transform="matrix(0.0087890625,0,0,0.0087890625,20.619140625,0)" xlink:href="#aH"/></g><g id="y"><use transform="matrix(0.0087890625,0,0,0.0087890625,0,0)" xlink:href="#aB"/><use transform="matrix(0.0087890625,0,0,0.0087890625,10.494140625,0)" xlink:href="#aK"/></g><path d="M1096 418H916v-591h-14C865-111 790 24 577 24c-279 0-473-224-473-580 0-354 195-576 474-576 218 0 287 134 324 193h20v-179h174V418zM604-137c203 0 314-172 314-421 0-247-108-413-314-413-212 0-317 181-317 413 0 235 108 421 317 421" id="bb"/><g id="z"><use transform="matrix(0.0087890625,0,0,0.0087890625,0,0)" xlink:href="#bb"/><use transform="matrix(0.0087890625,0,0,0.0087890625,11.021484375,0)" xlink:href="#aJ"/><use transform="matrix(0.0087890625,0,0,0.0087890625,21.6650390625,0)" xlink:href="#aB"/></g><g id="A"><use transform="matrix(0.0087890625,0,0,0.0087890625,0,0)" xlink:href="#aC"/><use transform="matrix(0.0087890625,0,0,0.0087890625,9.5009765625,0)" xlink:href="#aB"/></g><g id="B"><use transform="matrix(0.0087890625,0,0,0.0087890625,0,0)" xlink:href="#ay"/><use transform="matrix(0.0087890625,0,0,0.0087890625,6.4775390625,0)" xlink:href="#aB"/><use transform="matrix(0.0087890625,0,0,0.0087890625,16.9716796875,0)" xlink:href="#aE"/><use transform="matrix(0.0087890625,0,0,0.0087890625,28.0107421875,0)" xlink:href="#aF"/><use transform="matrix(0.0087890625,0,0,0.0087890625,32.3701171875,0)" xlink:href="#aC"/><use transform="matrix(0.0087890625,0,0,0.0087890625,41.87109375,0)" xlink:href="#aG"/><use transform="matrix(0.0087890625,0,0,0.0087890625,47.759765625,0)" xlink:href="#ay"/><use transform="matrix(0.0087890625,0,0,0.0087890625,54.5361328125,0)" xlink:href="#aH"/></g><g id="C"><use transform="matrix(0.0087890625,0,0,0.0087890625,0,0)" xlink:href="#aR"/><use transform="matrix(0.0087890625,0,0,0.0087890625,11.3203125,0)" xlink:href="#aB"/><use transform="matrix(0.0087890625,0,0,0.0087890625,21.462890625,0)" xlink:href="#aI"/><use transform="matrix(0.0087890625,0,0,0.0087890625,31.5791015625,0)" xlink:href="#aF"/><use transform="matrix(0.0087890625,0,0,0.0087890625,35.9384765625,0)" xlink:href="#aC"/><use transform="matrix(0.0087890625,0,0,0.0087890625,45.439453125,0)" xlink:href="#aH"/></g><g id="D"><use transform="matrix(0.0087890625,0,0,0.0087890625,0,0)" xlink:href="#aB"/><use transform="matrix(0.0087890625,0,0,0.0087890625,10.494140625,0)" xlink:href="#aX"/></g><g id="E"><use transform="matrix(0.0087890625,0,0,0.0087890625,0,0)" xlink:href="#aB"/><use transform="matrix(0.0087890625,0,0,0.0087890625,10.494140625,0)" xlink:href="#aC"/><use transform="matrix(0.0087890625,0,0,0.0087890625,19.9951171875,0)" xlink:href="#aG"/><use transform="matrix(0.0087890625,0,0,0.0087890625,25.9716796875,0)" xlink:href="#aH"/><use transform="matrix(0.0087890625,0,0,0.0087890625,36.0791015625,0)" xlink:href="#aD"/><use transform="matrix(0.0087890625,0,0,0.0087890625,47.1005859375,0)" xlink:href="#az"/></g><g id="F"><use transform="matrix(0.0087890625,0,0,0.0087890625,0,0)" xlink:href="#aD"/><use transform="matrix(0.0087890625,0,0,0.0087890625,11.021484375,0)" xlink:href="#aB"/></g><g id="G"><use transform="matrix(0.0087890625,0,0,0.0087890625,0,0)" xlink:href="#aA"/><use transform="matrix(0.0087890625,0,0,0.0087890625,10.283203125,0)" xlink:href="#aF"/><use transform="matrix(0.0087890625,0,0,0.0087890625,14.642578125,0)" xlink:href="#aG"/><use transform="matrix(0.0087890625,0,0,0.0087890625,20.619140625,0)" xlink:href="#aH"/></g><path d="M664-669c3 277-82 343-222 425-88 53-156 134-156 250 0 139 108 227 243 227 118 0 235-70 246-236h190c-10 251-200 395-436 395-259 0-427-165-427-393 0-161 74-273 203-352 132-80 180-132 178-316h181zm-93-462c75 0 135 60 135 134 0 75-60 135-135 135-74 0-134-60-134-135 0-74 60-134 134-134" id="bc"/><path d="M180 0v-1490h908v168H370v486h669v168H370v500h727V0H180" id="bd"/><path d="M471 26C259 26 90-98 90-318c0-256 228-303 435-329 202-27 287-16 287-108 0-139-79-219-234-219-161 0-248 86-283 164l-173-57c86-203 278-265 451-265 150 0 419 46 419 395V0H815v-152h-12C765-73 660 26 471 26zm31-159c199 0 310-134 310-271v-155c-30 35-226 55-295 64-131 17-246 59-246 186 0 116 97 176 231 176zm-23-1131l140-294h201l-194 294H479" id="be"/><g id="H"><use transform="matrix(0.006510416666666667,0,0,0.006510416666666667,0,0)" xlink:href="#bc"/><use transform="matrix(0.006510416666666667,0,0,0.006510416666666667,6.81640625,0)" xlink:href="#bd"/><use transform="matrix(0.006510416666666667,0,0,0.006510416666666667,14.830729166666668,0)" xlink:href="#aC"/><use transform="matrix(0.006510416666666667,0,0,0.006510416666666667,21.868489583333336,0)" xlink:href="#aG"/><use transform="matrix(0.006510416666666667,0,0,0.006510416666666667,26.29557291666667,0)" xlink:href="#be"/></g><g id="I"><use transform="matrix(0.006510416666666667,0,0,0.006510416666666667,0,0)" xlink:href="#aA"/><use transform="matrix(0.006510416666666667,0,0,0.006510416666666667,7.747395833333334,0)" xlink:href="#aH"/><use transform="matrix(0.006510416666666667,0,0,0.006510416666666667,15.234375,0)" xlink:href="#aK"/><use transform="matrix(0.006510416666666667,0,0,0.006510416666666667,23.111979166666668,0)" xlink:href="#aA"/><use transform="matrix(0.006510416666666667,0,0,0.006510416666666667,30.729166666666668,0)" xlink:href="#aB"/><use transform="matrix(0.006510416666666667,0,0,0.006510416666666667,38.50260416666667,0)" xlink:href="#aX"/><use transform="matrix(0.006510416666666667,0,0,0.006510416666666667,41.731770833333336,0)" xlink:href="#aH"/><use transform="matrix(0.006510416666666667,0,0,0.006510416666666667,49.21875,0)" xlink:href="#aD"/><use transform="matrix(0.006510416666666667,0,0,0.006510416666666667,57.3828125,0)" xlink:href="#aH"/></g><use transform="matrix(0.006510416666666667,0,0,0.006510416666666667,0,0)" xlink:href="#az" id="J"/><path d="M383-449c-3-277 82-343 222-425 88-53 156-134 156-250 0-139-108-227-243-227-118 0-235 70-246 236H82c10-251 200-395 436-395 259 0 427 165 427 393 0 161-74 273-203 352-132 80-180 132-178 316H383zm93 462c-75 0-135-60-135-134 0-75 60-135 135-135 74 0 134 60 134 135 0 74-60 134-134 134" id="bf"/><g id="K"><use transform="matrix(0.006510416666666667,0,0,0.006510416666666667,0,0)" xlink:href="#aF"/><use transform="matrix(0.006510416666666667,0,0,0.006510416666666667,3.229166666666667,0)" xlink:href="#aK"/><use transform="matrix(0.006510416666666667,0,0,0.006510416666666667,11.106770833333334,0)" xlink:href="#aH"/><use transform="matrix(0.006510416666666667,0,0,0.006510416666666667,18.59375,0)" xlink:href="#aC"/><use transform="matrix(0.006510416666666667,0,0,0.006510416666666667,25.631510416666668,0)" xlink:href="#aF"/><use transform="matrix(0.006510416666666667,0,0,0.006510416666666667,28.860677083333336,0)" xlink:href="#aC"/><use transform="matrix(0.006510416666666667,0,0,0.006510416666666667,35.8984375,0)" xlink:href="#aG"/><use transform="matrix(0.006510416666666667,0,0,0.006510416666666667,40.260416666666664,0)" xlink:href="#aF"/><use transform="matrix(0.006510416666666667,0,0,0.006510416666666667,43.48958333333333,0)" xlink:href="#aD"/><use transform="matrix(0.006510416666666667,0,0,0.006510416666666667,51.65364583333333,0)" xlink:href="#aH"/><use transform="matrix(0.006510416666666667,0,0,0.006510416666666667,59.14062499999999,0)" xlink:href="#bf"/></g><g id="L"><use transform="matrix(0.0087890625,0,0,0.0087890625,0,0)" xlink:href="#aC"/><use transform="matrix(0.0087890625,0,0,0.0087890625,9.5009765625,0)" xlink:href="#aF"/></g><path d="M338-670V0H158v-1490h180v566c73-149 190-208 336-208 226 0 379 139 379 422V0H872v-695c0-172-96-275-252-275-161 0-282 109-282 300" id="bg"/><g id="M"><use transform="matrix(0.0087890625,0,0,0.0087890625,0,0)" xlink:href="#bg"/><use transform="matrix(0.0087890625,0,0,0.0087890625,10.6435546875,0)" xlink:href="#az"/><use transform="matrix(0.0087890625,0,0,0.0087890625,21.4365234375,0)" xlink:href="#ay"/><use transform="matrix(0.0087890625,0,0,0.0087890625,28.212890625,0)" xlink:href="#aH"/></g><g id="N"><use transform="matrix(0.0087890625,0,0,0.0087890625,0,0)" xlink:href="#aH"/><use transform="matrix(0.0087890625,0,0,0.0087890625,10.107421875,0)" xlink:href="#aA"/><use transform="matrix(0.0087890625,0,0,0.0087890625,20.390625,0)" xlink:href="#aG"/><use transform="matrix(0.0087890625,0,0,0.0087890625,26.279296875,0)" xlink:href="#aJ"/><use transform="matrix(0.0087890625,0,0,0.0087890625,36.9228515625,0)" xlink:href="#aH"/><use transform="matrix(0.0087890625,0,0,0.0087890625,47.0302734375,0)" xlink:href="#aX"/></g><g id="O"><use transform="matrix(0.0087890625,0,0,0.0087890625,0,0)" xlink:href="#aB"/><use transform="matrix(0.0087890625,0,0,0.0087890625,10.494140625,0)" xlink:href="#aC"/></g><g id="P"><use transform="matrix(0.0087890625,0,0,0.0087890625,0,0)" xlink:href="#aS"/><use transform="matrix(0.0087890625,0,0,0.0087890625,11.021484375,0)" xlink:href="#az"/><use transform="matrix(0.0087890625,0,0,0.0087890625,21.814453125,0)" xlink:href="#aC"/><use transform="matrix(0.0087890625,0,0,0.0087890625,31.3154296875,0)" xlink:href="#aG"/><use transform="matrix(0.0087890625,0,0,0.0087890625,37.0283203125,0)" xlink:href="#aB"/><use transform="matrix(0.0087890625,0,0,0.0087890625,47.5224609375,0)" xlink:href="#ay"/><use transform="matrix(0.0087890625,0,0,0.0087890625,54.580078125,0)" xlink:href="#aF"/><use transform="matrix(0.0087890625,0,0,0.0087890625,58.939453125,0)" xlink:href="#az"/><use transform="matrix(0.0087890625,0,0,0.0087890625,69.732421875,0)" xlink:href="#ay"/></g><use transform="matrix(0.0087890625,0,0,0.0087890625,0,0)" xlink:href="#aH" id="Q"/><g id="R"><use transform="matrix(0.005859375,0,0,0.005859375,0,0)" xlink:href="#bc"/><use transform="matrix(0.005859375,0,0,0.005859375,6.134765625,0)" xlink:href="#bd"/><use transform="matrix(0.005859375,0,0,0.005859375,13.34765625,0)" xlink:href="#aC"/></g><g id="S"><use transform="matrix(0.005859375,0,0,0.005859375,0,0)" xlink:href="#aS"/><use transform="matrix(0.005859375,0,0,0.005859375,7.34765625,0)" xlink:href="#az"/><use transform="matrix(0.005859375,0,0,0.005859375,14.54296875,0)" xlink:href="#aC"/><use transform="matrix(0.005859375,0,0,0.005859375,20.876953125,0)" xlink:href="#aG"/><use transform="matrix(0.005859375,0,0,0.005859375,24.685546875,0)" xlink:href="#aB"/><use transform="matrix(0.005859375,0,0,0.005859375,31.681640625,0)" xlink:href="#ay"/><use transform="matrix(0.005859375,0,0,0.005859375,36.38671875,0)" xlink:href="#aF"/><use transform="matrix(0.005859375,0,0,0.005859375,39.29296875,0)" xlink:href="#az"/><use transform="matrix(0.005859375,0,0,0.005859375,46.48828125,0)" xlink:href="#ay"/><use transform="matrix(0.005859375,0,0,0.005859375,51.005859375,0)" xlink:href="#bf"/></g><path d="M783 20c-382 0-661-292-661-764 0-473 279-766 661-766 302 0 548 182 601 489h-190c-42-204-217-313-411-313-268 0-476 208-476 590 0 381 209 588 476 588 195 0 369-110 411-313h190c-52 303-296 489-601 489" id="bh"/><g id="T"><use transform="matrix(0.0087890625,0,0,0.0087890625,0,0)" xlink:href="#bh"/><use transform="matrix(0.0087890625,0,0,0.0087890625,13.1484375,0)" xlink:href="#aH"/><use transform="matrix(0.0087890625,0,0,0.0087890625,23.255859375,0)" xlink:href="#aX"/><use transform="matrix(0.0087890625,0,0,0.0087890625,27.615234375,0)" xlink:href="#aA"/><use transform="matrix(0.0087890625,0,0,0.0087890625,37.8984375,0)" xlink:href="#aJ"/><use transform="matrix(0.0087890625,0,0,0.0087890625,48.5419921875,0)" xlink:href="#aX"/><use transform="matrix(0.0087890625,0,0,0.0087890625,52.9013671875,0)" xlink:href="#aH"/></g><path d="M537 14c-226 0-379-139-379-422v-710h180v695c0 172 97 275 253 275 160 0 281-109 281-300v-670h181V0H879v-209C806-46 684 14 537 14zm-11-1278l140-294h201l-194 294H526" id="bi"/><g id="U"><use transform="matrix(0.0087890625,0,0,0.0087890625,0,0)" xlink:href="#aK"/><use transform="matrix(0.0087890625,0,0,0.0087890625,10.634765625,0)" xlink:href="#bi"/><use transform="matrix(0.0087890625,0,0,0.0087890625,21.2783203125,0)" xlink:href="#aV"/><use transform="matrix(0.0087890625,0,0,0.0087890625,37.0458984375,0)" xlink:href="#aB"/><use transform="matrix(0.0087890625,0,0,0.0087890625,47.5400390625,0)" xlink:href="#ay"/><use transform="matrix(0.0087890625,0,0,0.0087890625,54.017578125,0)" xlink:href="#az"/></g><g id="V"><use transform="matrix(0.0087890625,0,0,0.0087890625,0,0)" xlink:href="#aD"/><use transform="matrix(0.0087890625,0,0,0.0087890625,11.021484375,0)" xlink:href="#az"/><use transform="matrix(0.0087890625,0,0,0.0087890625,21.814453125,0)" xlink:href="#aC"/><use transform="matrix(0.0087890625,0,0,0.0087890625,31.3154296875,0)" xlink:href="#aF"/><use transform="matrix(0.0087890625,0,0,0.0087890625,35.6748046875,0)" xlink:href="#aC"/></g><g id="W"><use transform="matrix(0.0087890625,0,0,0.0087890625,0,0)" xlink:href="#aX"/><use transform="matrix(0.0087890625,0,0,0.0087890625,4.359375,0)" xlink:href="#aB"/></g><g id="X"><use transform="matrix(0.0087890625,0,0,0.0087890625,0,0)" xlink:href="#aA"/><use transform="matrix(0.0087890625,0,0,0.0087890625,10.283203125,0)" xlink:href="#az"/><use transform="matrix(0.0087890625,0,0,0.0087890625,21.076171875,0)" xlink:href="#ay"/><use transform="matrix(0.0087890625,0,0,0.0087890625,28.1337890625,0)" xlink:href="#ay"/><use transform="matrix(0.0087890625,0,0,0.0087890625,34.611328125,0)" xlink:href="#aB"/><use transform="matrix(0.0087890625,0,0,0.0087890625,45.10546875,0)" xlink:href="#aC"/><use transform="matrix(0.0087890625,0,0,0.0087890625,54.6064453125,0)" xlink:href="#aS"/><use transform="matrix(0.0087890625,0,0,0.0087890625,65.6279296875,0)" xlink:href="#az"/><use transform="matrix(0.0087890625,0,0,0.0087890625,76.4208984375,0)" xlink:href="#aK"/><use transform="matrix(0.0087890625,0,0,0.0087890625,87.0556640625,0)" xlink:href="#aD"/><use transform="matrix(0.0087890625,0,0,0.0087890625,98.0771484375,0)" xlink:href="#aB"/></g><path d="M600 0v-610L52-1490h220l295 481c50 82 90 150 130 243 40-96 80-164 128-243l294-481h219L790-610V0H600" id="bj"/><g id="Y"><use transform="matrix(0.005859375,0,0,0.005859375,0,0)" xlink:href="#bc"/><use transform="matrix(0.005859375,0,0,0.005859375,6.134765625,0)" xlink:href="#bj"/><use transform="matrix(0.005859375,0,0,0.005859375,13.4296875,0)" xlink:href="#aH"/></g><g id="Z"><use transform="matrix(0.005859375,0,0,0.005859375,0,0)" xlink:href="#aG"/><use transform="matrix(0.005859375,0,0,0.005859375,3.92578125,0)" xlink:href="#aF"/><use transform="matrix(0.005859375,0,0,0.005859375,6.83203125,0)" xlink:href="#aB"/><use transform="matrix(0.005859375,0,0,0.005859375,13.828125,0)" xlink:href="#aK"/><use transform="matrix(0.005859375,0,0,0.005859375,20.91796875,0)" xlink:href="#aB"/></g><g id="aa"><use transform="matrix(0.005859375,0,0,0.005859375,0,0)" xlink:href="#aG"/><use transform="matrix(0.005859375,0,0,0.005859375,3.80859375,0)" xlink:href="#az"/><use transform="matrix(0.005859375,0,0,0.005859375,11.00390625,0)" xlink:href="#aD"/><use transform="matrix(0.005859375,0,0,0.005859375,18.3515625,0)" xlink:href="#aH"/><use transform="matrix(0.005859375,0,0,0.005859375,25.08984375,0)" xlink:href="#aC"/></g><g id="ab"><use transform="matrix(0.005859375,0,0,0.005859375,0,0)" xlink:href="#aX"/><use transform="matrix(0.005859375,0,0,0.005859375,2.90625,0)" xlink:href="#aH"/><use transform="matrix(0.005859375,0,0,0.005859375,9.64453125,0)" xlink:href="#aC"/></g><g id="ac"><use transform="matrix(0.005859375,0,0,0.005859375,0,0)" xlink:href="#aD"/><use transform="matrix(0.005859375,0,0,0.005859375,7.34765625,0)" xlink:href="#az"/><use transform="matrix(0.005859375,0,0,0.005859375,14.54296875,0)" xlink:href="#aC"/><use transform="matrix(0.005859375,0,0,0.005859375,20.876953125,0)" xlink:href="#aF"/><use transform="matrix(0.005859375,0,0,0.005859375,23.783203125,0)" xlink:href="#aC"/><use transform="matrix(0.005859375,0,0,0.005859375,30.1171875,0)" xlink:href="#bf"/></g><g id="ad"><use transform="matrix(0.0087890625,0,0,0.0087890625,0,0)" xlink:href="#bh"/><use transform="matrix(0.0087890625,0,0,0.0087890625,13.1484375,0)" xlink:href="#ay"/><use transform="matrix(0.0087890625,0,0,0.0087890625,19.6259765625,0)" xlink:href="#aB"/><use transform="matrix(0.0087890625,0,0,0.0087890625,30.2958984375,0)" xlink:href="#aH"/></g><path d="M180 0v-1490h224l606 953c40 63 108 177 176 312-27-437-7-821-13-1265h190V0h-226C860-448 622-778 356-1262c27 476 11 792 15 1262H180" id="bk"/><g id="ae"><use transform="matrix(0.0087890625,0,0,0.0087890625,0,0)" xlink:href="#bk"/><use transform="matrix(0.0087890625,0,0,0.0087890625,13.5615234375,0)" xlink:href="#az"/><use transform="matrix(0.0087890625,0,0,0.0087890625,24.3544921875,0)" xlink:href="#aG"/><use transform="matrix(0.0087890625,0,0,0.0087890625,30.2431640625,0)" xlink:href="#aF"/><use transform="matrix(0.0087890625,0,0,0.0087890625,34.6025390625,0)" xlink:href="#ba"/><use transform="matrix(0.0087890625,0,0,0.0087890625,41.2646484375,0)" xlink:href="#aF"/><use transform="matrix(0.0087890625,0,0,0.0087890625,45.6240234375,0)" xlink:href="#aA"/><use transform="matrix(0.0087890625,0,0,0.0087890625,56.0830078125,0)" xlink:href="#aH"/></g><g id="af"><use transform="matrix(0.0087890625,0,0,0.0087890625,0,0)" xlink:href="#aH"/><use transform="matrix(0.0087890625,0,0,0.0087890625,10.107421875,0)" xlink:href="#aX"/></g><g id="ag"><use transform="matrix(0.0087890625,0,0,0.0087890625,0,0)" xlink:href="#aS"/><use transform="matrix(0.0087890625,0,0,0.0087890625,11.197265625,0)" xlink:href="#aH"/><use transform="matrix(0.0087890625,0,0,0.0087890625,21.3046875,0)" xlink:href="#aA"/><use transform="matrix(0.0087890625,0,0,0.0087890625,31.587890625,0)" xlink:href="#aF"/><use transform="matrix(0.0087890625,0,0,0.0087890625,35.947265625,0)" xlink:href="#aB"/><use transform="matrix(0.0087890625,0,0,0.0087890625,46.44140625,0)" xlink:href="#aK"/><use transform="matrix(0.0087890625,0,0,0.0087890625,57.076171875,0)" xlink:href="#aG"/><use transform="matrix(0.0087890625,0,0,0.0087890625,62.7890625,0)" xlink:href="#aB"/></g><g id="ah"><use transform="matrix(0.0087890625,0,0,0.0087890625,0,0)" xlink:href="#aB"/><use transform="matrix(0.0087890625,0,0,0.0087890625,10.494140625,0)" xlink:href="#aX"/></g><path d="M338-670V0H158v-1118h173l1 207c72-158 192-221 342-221 226 0 378 139 378 422V0H872v-695c0-172-96-275-252-275-161 0-282 109-282 300zm398-643c-99 0-192-83-243-83-35 0-51 40-53 79H314c4-120 55-208 162-208 104 0 174 85 241 85 33 0 49-23 56-81h123c-4 126-62 208-160 208" id="bl"/><g id="ai"><use transform="matrix(0.0087890625,0,0,0.0087890625,0,0)" xlink:href="#aU"/><use transform="matrix(0.0087890625,0,0,0.0087890625,11.548828125,0)" xlink:href="#aB"/><use transform="matrix(0.0087890625,0,0,0.0087890625,22.04296875,0)" xlink:href="#bl"/><use transform="matrix(0.0087890625,0,0,0.0087890625,32.677734375,0)" xlink:href="#aH"/><use transform="matrix(0.0087890625,0,0,0.0087890625,42.78515625,0)" xlink:href="#aX"/><use transform="matrix(0.0087890625,0,0,0.0087890625,47.14453125,0)" xlink:href="#aH"/></g><g id="aj"><use transform="matrix(0.0087890625,0,0,0.0087890625,0,0)" xlink:href="#aK"/><use transform="matrix(0.0087890625,0,0,0.0087890625,10.634765625,0)" xlink:href="#az"/></g><g id="ak"><use transform="matrix(0.0087890625,0,0,0.0087890625,0,0)" xlink:href="#aS"/><use transform="matrix(0.0087890625,0,0,0.0087890625,11.021484375,0)" xlink:href="#aJ"/><use transform="matrix(0.0087890625,0,0,0.0087890625,21.6650390625,0)" xlink:href="#aD"/><use transform="matrix(0.0087890625,0,0,0.0087890625,32.6865234375,0)" xlink:href="#az"/></g><g id="al"><use transform="matrix(0.0087890625,0,0,0.0087890625,0,0)" xlink:href="#ay"/><use transform="matrix(0.0087890625,0,0,0.0087890625,6.4775390625,0)" xlink:href="#aB"/><use transform="matrix(0.0087890625,0,0,0.0087890625,16.9716796875,0)" xlink:href="#aE"/><use transform="matrix(0.0087890625,0,0,0.0087890625,28.0107421875,0)" xlink:href="#aF"/><use transform="matrix(0.0087890625,0,0,0.0087890625,32.3701171875,0)" xlink:href="#aC"/><use transform="matrix(0.0087890625,0,0,0.0087890625,41.87109375,0)" xlink:href="#aG"/><use transform="matrix(0.0087890625,0,0,0.0087890625,47.759765625,0)" xlink:href="#ay"/><use transform="matrix(0.0087890625,0,0,0.0087890625,54.5361328125,0)" xlink:href="#aH"/><use transform="matrix(0.0087890625,0,0,0.0087890625,64.6435546875,0)" xlink:href="#ay"/></g><g id="am"><use transform="matrix(0.0087890625,0,0,0.0087890625,0,0)" xlink:href="#aI"/><use transform="matrix(0.0087890625,0,0,0.0087890625,10.0283203125,0)" xlink:href="#aH"/><use transform="matrix(0.0087890625,0,0,0.0087890625,20.1357421875,0)" xlink:href="#aA"/><use transform="matrix(0.0087890625,0,0,0.0087890625,30.4189453125,0)" xlink:href="#aJ"/><use transform="matrix(0.0087890625,0,0,0.0087890625,41.0625,0)" xlink:href="#aK"/><use transform="matrix(0.0087890625,0,0,0.0087890625,51.697265625,0)" xlink:href="#aH"/><use transform="matrix(0.0087890625,0,0,0.0087890625,61.8046875,0)" xlink:href="#aA"/><use transform="matrix(0.0087890625,0,0,0.0087890625,72.087890625,0)" xlink:href="#aF"/><use transform="matrix(0.0087890625,0,0,0.0087890625,76.447265625,0)" xlink:href="#aL"/><use transform="matrix(0.0087890625,0,0,0.0087890625,87.240234375,0)" xlink:href="#aK"/></g><g id="an"><use transform="matrix(0.0087890625,0,0,0.0087890625,0,0)" xlink:href="#aF"/><use transform="matrix(0.0087890625,0,0,0.0087890625,4.359375,0)" xlink:href="#aK"/><use transform="matrix(0.0087890625,0,0,0.0087890625,14.994140625,0)" xlink:href="#aD"/><use transform="matrix(0.0087890625,0,0,0.0087890625,26.015625,0)" xlink:href="#aF"/><use transform="matrix(0.0087890625,0,0,0.0087890625,30.375,0)" xlink:href="#aA"/><use transform="matrix(0.0087890625,0,0,0.0087890625,40.833984375,0)" xlink:href="#aH"/><use transform="matrix(0.0087890625,0,0,0.0087890625,50.94140625,0)" xlink:href="#aK"/><use transform="matrix(0.0087890625,0,0,0.0087890625,61.576171875,0)" xlink:href="#aD"/><use transform="matrix(0.0087890625,0,0,0.0087890625,72.59765625,0)" xlink:href="#az"/></g><g id="ao"><use transform="matrix(0.0087890625,0,0,0.0087890625,0,0)" xlink:href="#aA"/><use transform="matrix(0.0087890625,0,0,0.0087890625,10.458984375,0)" xlink:href="#aH"/><use transform="matrix(0.0087890625,0,0,0.0087890625,20.56640625,0)" xlink:href="#aJ"/><use transform="matrix(0.0087890625,0,0,0.0087890625,31.2099609375,0)" xlink:href="#aC"/><use transform="matrix(0.0087890625,0,0,0.0087890625,40.7109375,0)" xlink:href="#aH"/></g><path fill="#6db1ff" d="M52 0l541-1490h220L1361 0h-200l-149-416H398L254 0H52zm404-582h497c-103-290-145-390-251-756-108 377-145 460-246 756" id="bm"/><path fill="#6db1ff" d="M613 24c-304 0-509-231-509-576 0-350 205-580 509-580 216 0 392 114 453 309l-173 49c-33-115-133-197-280-197-223 0-326 196-326 419 0 220 103 415 326 415 150 0 252-85 285-206l172 49C1010-95 832 24 613 24" id="bn"/><path fill="#6db1ff" d="M628 24c-324 0-524-230-524-574 0-343 198-582 503-582 237 0 487 146 487 559v75H286c9 234 145 362 343 362 132 0 231-58 273-172l174 48C1024-91 857 24 628 24zM287-650h624c-17-190-120-322-304-322-192 0-309 151-320 322" id="bo"/><path fill="#6db1ff" d="M158 418v-1536h174v179h20c37-59 106-193 324-193 279 0 474 222 474 576 0 356-194 580-473 580-213 0-288-135-325-197h-14v591H158zm492-555c209 0 317-186 317-421 0-232-105-413-317-413-206 0-314 166-314 413 0 249 111 421 314 421" id="bp"/><path fill="#6db1ff" d="M598-1118v154H368v674c0 100 37 144 132 144 23 0 62-6 92-12L629-6c-37 13-88 20-134 20-193 0-307-107-307-290v-688H20v-154h168v-266h180v266h230" id="bq"/><path fill="#6db1ff" d="M471 26C259 26 90-98 90-318c0-256 228-303 435-329 202-27 287-16 287-108 0-139-79-219-234-219-161 0-248 86-283 164l-173-57c86-203 278-265 451-265 150 0 419 46 419 395V0H815v-152h-12C765-73 660 26 471 26zm31-159c199 0 310-134 310-271v-155c-30 35-226 55-295 64-131 17-246 59-246 186 0 116 97 176 231 176" id="br"/><g id="ap"><use transform="matrix(0.008072916666666667,0,0,0.008072916666666667,0,0)" xlink:href="#bm"/><use transform="matrix(0.008072916666666667,0,0,0.008072916666666667,11.407031250000001,0)" xlink:href="#bn"/><use transform="matrix(0.008072916666666667,0,0,0.008072916666666667,20.852343750000003,0)" xlink:href="#bo"/><use transform="matrix(0.008072916666666667,0,0,0.008072916666666667,30.491406250000004,0)" xlink:href="#bp"/><use transform="matrix(0.008072916666666667,0,0,0.008072916666666667,40.614843750000006,0)" xlink:href="#bq"/><use transform="matrix(0.008072916666666667,0,0,0.008072916666666667,46.10442708333333,0)" xlink:href="#br"/></g><path fill="#6db1ff" d="M140 405l46-156c120 36 205 19 263-150l32-93L54-1118h197c107 313 237 620 324 950 87-331 219-637 326-950h196L606 167c-68 178-176 259-334 259-64 0-113-12-132-21" id="bs"/><use transform="matrix(0.008072916666666667,0,0,0.008072916666666667,0,0)" xlink:href="#bs" id="aq"/><path fill="#6db1ff" d="M158 0v-1118h180V0H158zm91-1301c-68 0-125-53-125-119s57-119 125-119c69 0 126 53 126 119s-57 119-126 119" id="bt"/><path fill="#6db1ff" d="M158 0v-1118h174v172h12c41-113 157-188 290-188 26 0 70 2 91 3v181c-11-2-60-10-108-10-161 0-279 109-279 260V0H158" id="bu"/><g id="ar"><use transform="matrix(0.008072916666666667,0,0,0.008072916666666667,0,0)" xlink:href="#bn"/><use transform="matrix(0.008072916666666667,0,0,0.008072916666666667,9.445312500000002,0)" xlink:href="#bt"/><use transform="matrix(0.008072916666666667,0,0,0.008072916666666667,13.44947916666667,0)" xlink:href="#bo"/><use transform="matrix(0.008072916666666667,0,0,0.008072916666666667,23.08854166666667,0)" xlink:href="#bu"/><use transform="matrix(0.008072916666666667,0,0,0.008072916666666667,29.571093750000003,0)" xlink:href="#bu"/><use transform="matrix(0.008072916666666667,0,0,0.008072916666666667,35.7953125,0)" xlink:href="#br"/></g><g id="as"><use transform="matrix(0.005859375,0,0,0.005859375,0,0)" xlink:href="#bk"/><use transform="matrix(0.005859375,0,0,0.005859375,9.041015625,0)" xlink:href="#az"/></g><path d="M158 0v-1118h180V0H158zm12-1264l140-294h201l-194 294H170" id="bv"/><g id="at"><use transform="matrix(0.005859375,0,0,0.005859375,0,0)" xlink:href="#aU"/><use transform="matrix(0.005859375,0,0,0.005859375,7.69921875,0)" xlink:href="#bv"/></g><g id="au"><use transform="matrix(0.005859375,0,0,0.005859375,0,0)" xlink:href="#aU"/><use transform="matrix(0.005859375,0,0,0.005859375,7.69921875,0)" xlink:href="#aF"/></g><path d="M645 0H180v-1490h484c435 0 692 280 692 742 0 466-257 748-711 748zM370-168h263c363 0 539-218 539-580 0-358-176-574-521-574H370v1154" id="bw"/><g id="av"><use transform="matrix(0.005859375,0,0,0.005859375,0,0)" xlink:href="#bc"/><use transform="matrix(0.005859375,0,0,0.005859375,6.134765625,0)" xlink:href="#bw"/><use transform="matrix(0.005859375,0,0,0.005859375,14.794921875,0)" xlink:href="#aB"/><use transform="matrix(0.005859375,0,0,0.005859375,21.791015625,0)" xlink:href="#aC"/><use transform="matrix(0.005859375,0,0,0.005859375,28.125,0)" xlink:href="#aB"/><use transform="matrix(0.005859375,0,0,0.005859375,35.23828125,0)" xlink:href="#aH"/></g><g id="aw"><use transform="matrix(0.005859375,0,0,0.005859375,0,0)" xlink:href="#ay"/><use transform="matrix(0.005859375,0,0,0.005859375,4.318359375,0)" xlink:href="#aB"/><use transform="matrix(0.005859375,0,0,0.005859375,11.314453125,0)" xlink:href="#aF"/><use transform="matrix(0.005859375,0,0,0.005859375,14.220703125,0)" xlink:href="#aK"/><use transform="matrix(0.005859375,0,0,0.005859375,21.310546875,0)" xlink:href="#aG"/><use transform="matrix(0.005859375,0,0,0.005859375,25.119140625,0)" xlink:href="#aB"/><use transform="matrix(0.005859375,0,0,0.005859375,32.115234375,0)" xlink:href="#aK"/><use transform="matrix(0.005859375,0,0,0.005859375,39.205078125,0)" xlink:href="#aG"/><use transform="matrix(0.005859375,0,0,0.005859375,43.189453125,0)" xlink:href="#aH"/><use transform="matrix(0.005859375,0,0,0.005859375,49.927734375,0)" xlink:href="#ay"/><use transform="matrix(0.005859375,0,0,0.005859375,54.4453125,0)" xlink:href="#bf"/></g></defs></g></svg>